<svg xmlns="http://www.w3.org/2000/svg" viewBox="0 0 496 512"><path fill="#4285F4" d="M336.5 160C322 70.7 287.8 8 248 8s-74 62.7-88.5 152h177zM152 256c0 22.2 1.2 43.5 3.3 64h185.3c2.1-20.5 3.3-41.8 3.3-64s-1.2-43.5-3.3-64H155.3c-2.1 20.5-3.3 41.8-3.3 64zm324.7-96c-28.6-67.9-86.5-120.4-158-141.6 24.4 33.8 41.2 84.7 50 141.6h108zm-124.6 96c0 24.3-1.3 47.4-3.8 68.9 58.3-7.5 109.9-30.5 146.9-65-23.2-55.3-72.3-97.7-130.1-115.8-3.5 21.4-5.6 44.5-5.6 67.9h-8c1.1 11.1 1.7 22.4 1.7 34 0 11.6-.6 22.9-1.7 34h8c0 23.4 2.1 46.5 5.6 67.9 57.8-18.1 106.9-60.5 130.1-115.8-37 34.5-88.6 57.5-146.9 65 2.5 21.5 3.8 44.6 3.8 68.9h-24c3.2-40.2 5-83.9 5-128s-1.8-87.8-5-128h24zm-176.7 68.9c-58.3-7.5-109.9-30.6-146.9-65 23.2 55.3 72.3 97.7 130.1 115.8 3.5-21.4 5.6-44.5 5.6-67.9h8c-1.1-11.1-1.7-22.4-1.7-34 0-11.6.6-22.9 1.7-34h-8c0-23.4-2.1-46.5-5.6-67.9-57.8 18.1-106.9 60.5-130.1 115.8 37-34.5 88.6-57.5 146.9-65-2.5-21.5-3.8-44.6-3.8-68.9h24c-3.2 40.2-5 83.9-5 128s1.8 87.8 5 128h-24c0-24.3 1.3-47.4 3.8-68.9zm-175.4-96c8.8-56.9 25.6-107.8 50-141.6-71.5 21.2-129.4 73.7-158 141.6h108z"/></svg> 